<svg id="Layer_1" data-name="Layer 1" xmlns="http://www.w3.org/2000/svg" width="7.1in" height="7.1in" viewBox="0 0 512 512"><title>instagram</title><path d="M305,256a49,49,0,1,1-49-49A49,49,0,0,1,305,256Z" fill="#898a8d"/><path d="M370.6,169.3a48.7,48.7,0,0,0-27.9-27.9c-5.2-2-13-4.4-27.3-5.1s-20.2-.8-59.4-.8-43.9.1-59.4.8-22.1,3.1-27.3,5.1a48.7,48.7,0,0,0-27.9,27.9c-2,5.2-4.4,13-5.1,27.3s-.8,20.2-.8,59.4.1,43.9.8,59.4,3.1,22.1,5.1,27.3a48.7,48.7,0,0,0,27.9,27.9c5.2,2,13,4.4,27.3,5.1s20.1.8,59.4.8,43.9-.1,59.4-.8,22.1-3.1,27.3-5.1a48.8,48.8,0,0,0,27.9-27.9c2-5.2,4.4-13,5.1-27.3s.8-20.1.8-59.4-.1-43.9-.8-59.4S372.6,174.5,370.6,169.3ZM256,331.5A75.5,75.5,0,1,1,331.5,256,75.5,75.5,0,0,1,256,331.5Zm78.5-136.3a17.7,17.7,0,1,1,17.6-17.7A17.7,17.7,0,0,1,334.5,195.2Z" fill="#898a8d"/><path d="M256,0C114.6,0,0,114.6,0,256S114.6,512,256,512,512,397.4,512,256,397.4,0,256,0ZM402.1,316.6c-.7,15.7-3.2,26.3-6.8,35.7a75.8,75.8,0,0,1-43,43c-9.4,3.6-20,6.1-35.7,6.8s-20.7.9-60.6.9-44.9-.2-60.6-.9-26.3-3.2-35.7-6.8a75.8,75.8,0,0,1-43-43c-3.6-9.4-6.1-20-6.8-35.7s-.9-20.7-.9-60.6.2-44.9.9-60.6,3.2-26.3,6.8-35.7a75.8,75.8,0,0,1,43-43c9.4-3.6,20-6.1,35.7-6.8s20.7-.9,60.6-.9,44.9.2,60.6.9,26.3,3.2,35.7,6.8a75.8,75.8,0,0,1,43,43c3.6,9.4,6.1,20,6.8,35.7s.9,20.7.9,60.6S402.8,300.9,402.1,316.6Z" fill="#898a8d"/></svg>