<svg xmlns="http://www.w3.org/2000/svg" width="4.6in" height="4.9in" viewBox="0 0 333.4 352.4"><title>jmjones-logo-icon</title><g id="Final_Logo" data-name="Final Logo"><path d="M184,59l-81.6.4v77.9h54.7A26.9,26.9,0,0,1,184,164.1v24.6a26.9,26.9,0,0,1-26.9,26.8H58.9v78.1H227.7a46.8,46.8,0,0,0,46.8-46.7V59Z" fill="#898a8d"/><path d="M184,59l-81.6.4v77.9h54.7A26.9,26.9,0,0,1,184,164.1s63.5-2.9,90.5,44.6V59Z" fill="#636569"/><path d="M102.4,59.2v78.1h66.8c40.5,0,105.3,19.1,105.3,78.1V58.9Z" fill="#8dc6e8"/></g></svg>